#!OML:ASF X:\für Bonn\!DataBase\2005_08_12_Daniel\c3d\Daniel.ASF
:FULLY-SPECIFIED
:DEGREES
2965
root -15.5736 17.1076 28.2975 -908.989 -68.701 -182.556
lowerback 11.2787 -5.62716 -0.699691
upperback 1.87124 -7.66445 -0.320687
thorax -4.2746 -3.82283 1.183
lowerneck -5.14946 2.14291 -7.54527
upperneck 10.2894 3.05607 3.93122
head 3.73304 1.37166 2.56516
rclavicle -4.95719e-014 1.15295e-014
rhumerus -49.7175 -31.3423 -59.0398
rradius 20.6913
rwrist 6.83781
rhand -22.2483 18.6511
rfingers 7.12502
rthumb 4.16903 -11.2879
lclavicle -4.95719e-014 1.15295e-014
lhumerus -30.7101 56.8747 72.8591
lradius 13.2141
lwrist -67.0586
lhand -10.9977 -1.36203
lfingers 7.12502
lthumb 15.0227 28.073
rfemur -13.0381 4.02467 25.2839
rtibia 37.2022
rfoot -15.1536 1.39068
rtoes -4.3801
lfemur 0.740188 11.8083 -21.4141
ltibia 43.7325
lfoot -30.4887 0.611713
ltoes -4.73729
2966
root -15.6224 17.0986 28.2996 -909.441 -68.1524 -182.027
lowerback 11.2798 -5.55791 -0.494889
upperback 1.83156 -7.54364 -0.241595
thorax -4.33427 -3.76403 1.13875
lowerneck -5.10084 2.04232 -7.57571
upperneck 10.2027 2.89607 4.19208
head 3.70246 1.3068 2.64175
rclavicle -5.73991e-015 7.95139e-016
rhumerus -49.896 -31.7654 -59.3405
rradius 20.5777
rwrist 7.05671
rhand -21.8555 18.9787
rfingers 7.12502
rthumb 4.54828 -10.9525
lclavicle -5.73991e-015 7.95139e-016
lhumerus -37.0286 61.6099 65.5292
lradius 13.1356
lwrist -67.6738
lhand -10.7355 -1.63114
lfingers 7.12502
lthumb 15.2753 27.7848
rfemur -12.9675 4.52721 25.5717
rtibia 37.3029
rfoot -15.4356 1.44485
rtoes -4.65527
lfemur 0.406631 12.7986 -20.8591
ltibia 44.6537
lfoot -30.4603 0.0404255
ltoes -5.07157
2967
root -15.6702 17.0872 28.2992 -909.937 -67.612 -181.482
lowerback 11.3041 -5.48686 -0.3061
upperback 1.81292 -7.42331 -0.165024
thorax -4.38253 -3.70606 1.10149
lowerneck -5.07315 1.93665 -7.59393
upperneck 10.12 2.7291 4.46336
head 3.6775 1.23934 2.71978
rclavicle 7.12022e-014 3.97569e-016
rhumerus -50.0007 -32.0297 -59.8283
rradius 20.5286
rwrist 6.92007
rhand -21.5378 19.1878
rfingers 7.12502
rthumb 4.85507 -10.7366
lclavicle 7.12022e-014 3.97569e-016
lhumerus -44.1216 64.886 57.5159
lradius 13.1906
lwrist -67.4317
lhand -9.74893 -1.91616
lfingers 7.12502
lthumb 16.2254 27.4249
rfemur -12.8582 5.08483 25.8893
rtibia 37.417
rfoot -15.7321 1.43958
rtoes -4.73195
lfemur 0.0477636 13.7829 -20.247
ltibia 45.7001
lfoot -30.3656 -0.621791
ltoes -5.28075
2968
root -15.7169 17.0756 28.2964 -910.433 -67.0551 -180.923
lowerback 11.2866 -5.4092 -0.110181
upperback 1.81606 -7.29377 -0.0896031
thorax -4.38561 -3.64476 1.05165
lowerneck -5.05234 1.82057 -7.61907
upperneck 10.0334 2.54914 4.73918
head 3.65367 1.16527 2.79995
rclavicle 1.38627e-013 -3.18055e-015
rhumerus -49.9988 -32.2274 -60.4331
rradius 20.4764
rwrist 6.59565
rhand -21.2702 19.3448
rfingers 7.12502
rthumb 5.11346 -10.5735
lclavicle 1.38627e-013 -3.18055e-015
lhumerus -50.7155 66.665 50.1322
lradius 13.3509
lwrist -66.2968
lhand -8.23964 -1.97297
lfingers 7.12502
lthumb 17.6782 27.2434
rfemur -12.751 5.71939 26.2466
rtibia 37.5149
rfoot -16.0279 1.36746
rtoes -4.80155
lfemur -0.370142 14.8028 -19.5783
ltibia 46.8515
lfoot -30.1581 -1.33978
ltoes -5.52699
2969
root -15.7628 17.0662 28.293 -910.978 -66.5164 -180.283
lowerback 11.2558 -5.33673 0.132372
upperback 1.8102 -7.16477 -0.000608804
thorax -4.39413 -3.58415 0.989556
lowerneck -5.03815 1.69478 -7.65647
upperneck 9.93779 2.35887 5.00893
head 3.62949 1.08531 2.87992
rclavicle -8.57259e-016 1.59028e-015
rhumerus -49.9449 -32.3501 -61.0826
rradius 20.4406
rwrist 6.14019
rhand -21.0337 19.3991
rfingers 7.12502
rthumb 5.34183 -10.5135
lclavicle -8.57259e-016 1.59028e-015
lhumerus -56.6959 67.5656 43.406
lradius 13.4977
lwrist -64.9812
lhand -6.463 -1.8648
lfingers 7.12502
lthumb 19.3872 27.1887
rfemur -12.6382 6.36908 26.6528
rtibia 37.5592
rfoot -16.2986 1.28212
rtoes -4.78435
lfemur -0.860562 15.7092 -18.883
ltibia 48.0804
lfoot -29.8604 -2.03799
ltoes -5.74222
2970
root -15.8084 17.0607 28.2883 -911.543 -65.964 -179.651
lowerback 11.2757 -5.27177 0.384896
upperback 1.80667 -7.045 0.088674
thorax -4.42861 -3.52819 0.928642
lowerneck -5.0732 1.56401 -7.796
upperneck 9.88832 2.16818 5.33243
head 3.62621 1.00345 2.99445
rclavicle 1.05381e-013 -4.77083e-015
rhumerus -49.8139 -32.3423 -61.8476
rradius 20.4518
rwrist 5.59309
rhand -20.784 19.304
rfingers 7.12502
rthumb 5.58289 -10.6025
lclavicle 1.05381e-013 -4.77083e-015
lhumerus -61.1539 67.6194 38.2426
lradius 13.5986
lwrist -63.4425
lhand -4.6571 -1.61854
lfingers 7.12502
lthumb 21.1228 27.2509
rfemur -12.4483 6.98661 27.0763
rtibia 37.5512
rfoot -16.5053 1.20704
rtoes -4.665
lfemur -1.39032 16.4824 -18.1919
ltibia 49.361
lfoot -29.4211 -2.7246
ltoes -5.55646
2971
root -15.854 17.0579 28.2829 -912.073 -65.4228 -179.037
lowerback 11.2959 -5.20147 0.654834
upperback 1.79356 -6.91571 0.175275
thorax -4.47501 -3.46764 0.85441
lowerneck -5.1268 1.42045 -7.9431
upperneck 9.8484 1.96374 5.64034
head 3.63095 0.913774 3.10532
rclavicle -1.2014e-014 6.36111e-015
rhumerus -49.6609 -32.2094 -62.6848
rradius 20.5184
rwrist 5.10255
rhand -20.5172 19.1005
rfingers 7.12502
rthumb 5.84045 -10.799
lclavicle -1.2014e-014 6.36111e-015
lhumerus -64.3276 67.1818 34.375
lradius 13.632
lwrist -62.0452
lhand -3.10318 -1.39739
lfingers 7.12502
lthumb 22.6149 27.2978
rfemur -12.2536 7.60022 27.4978
rtibia 37.4972
rfoot -16.7071 1.16213
rtoes -4.57908
lfemur -2.02966 17.0728 -17.5632
ltibia 50.6848
lfoot -28.805 -3.28227
ltoes -5.2879
